<?xml version="1.0" encoding="UTF-8"?>
<svg xmlns="http://www.w3.org/2000/svg" version="1.1" width="300" height="300" viewBox="0 0 300 300"><rect x="0" y="0" width="300" height="300" fill="#ffffff"/><g transform="scale(10.345)"><g transform="translate(0,0)"><path fill-rule="evenodd" d="M9 0L9 1L8 1L8 2L9 2L9 3L8 3L8 4L10 4L10 7L11 7L11 8L6 8L6 9L5 9L5 8L0 8L0 10L3 10L3 12L0 12L0 13L2 13L2 14L3 14L3 12L5 12L5 13L4 13L4 15L3 15L3 16L2 16L2 15L0 15L0 21L1 21L1 17L2 17L2 20L3 20L3 19L4 19L4 21L5 21L5 20L6 20L6 21L7 21L7 20L6 20L6 19L7 19L7 18L9 18L9 19L11 19L11 20L8 20L8 23L10 23L10 24L8 24L8 29L16 29L16 27L17 27L17 26L21 26L21 27L18 27L18 28L17 28L17 29L18 29L18 28L19 28L19 29L20 29L20 28L21 28L21 29L22 29L22 28L24 28L24 29L25 29L25 28L26 28L26 29L27 29L27 28L28 28L28 26L29 26L29 25L28 25L28 24L26 24L26 23L27 23L27 22L29 22L29 20L28 20L28 19L27 19L27 16L28 16L28 15L27 15L27 12L28 12L28 11L27 11L27 12L25 12L25 9L26 9L26 8L25 8L25 9L24 9L24 8L23 8L23 9L22 9L22 8L20 8L20 7L21 7L21 6L20 6L20 7L19 7L19 6L18 6L18 7L19 7L19 8L20 8L20 9L19 9L19 10L17 10L17 9L18 9L18 8L15 8L15 6L16 6L16 7L17 7L17 6L16 6L16 5L17 5L17 4L18 4L18 5L20 5L20 3L21 3L21 2L18 2L18 3L17 3L17 0L16 0L16 1L15 1L15 2L14 2L14 3L12 3L12 2L13 2L13 1L11 1L11 2L10 2L10 0ZM19 0L19 1L21 1L21 0ZM10 3L10 4L11 4L11 7L12 7L12 4L11 4L11 3ZM14 3L14 5L16 5L16 4L17 4L17 3ZM18 3L18 4L19 4L19 3ZM8 5L8 7L9 7L9 5ZM13 6L13 8L11 8L11 9L10 9L10 11L11 11L11 12L10 12L10 13L9 13L9 14L7 14L7 13L5 13L5 15L4 15L4 16L3 16L3 17L4 17L4 19L6 19L6 18L7 18L7 17L6 17L6 16L7 16L7 15L10 15L10 13L12 13L12 14L11 14L11 15L12 15L12 16L14 16L14 14L16 14L16 15L15 15L15 16L16 16L16 17L13 17L13 20L11 20L11 21L9 21L9 22L11 22L11 23L12 23L12 24L14 24L14 23L15 23L15 22L16 22L16 23L17 23L17 24L18 24L18 25L20 25L20 24L18 24L18 22L20 22L20 20L24 20L24 19L25 19L25 21L26 21L26 20L27 20L27 19L25 19L25 18L21 18L21 19L20 19L20 18L18 18L18 19L16 19L16 21L14 21L14 22L11 22L11 21L13 21L13 20L15 20L15 19L14 19L14 18L16 18L16 17L17 17L17 16L18 16L18 15L20 15L20 16L19 16L19 17L23 17L23 14L19 14L19 11L20 11L20 10L19 10L19 11L17 11L17 12L16 12L16 11L15 11L15 10L16 10L16 9L15 9L15 10L14 10L14 9L13 9L13 8L14 8L14 6ZM27 8L27 9L28 9L28 10L29 10L29 9L28 9L28 8ZM3 9L3 10L5 10L5 9ZM6 9L6 10L7 10L7 11L5 11L5 12L7 12L7 11L8 11L8 10L7 10L7 9ZM11 9L11 10L12 10L12 9ZM22 10L22 11L21 11L21 12L20 12L20 13L23 13L23 11L24 11L24 10ZM12 11L12 12L13 12L13 13L15 13L15 12L13 12L13 11ZM17 12L17 13L16 13L16 14L17 14L17 13L18 13L18 12ZM24 12L24 13L25 13L25 16L24 16L24 17L26 17L26 16L27 16L27 15L26 15L26 13L25 13L25 12ZM28 13L28 14L29 14L29 13ZM6 14L6 15L5 15L5 16L4 16L4 17L5 17L5 18L6 18L6 17L5 17L5 16L6 16L6 15L7 15L7 14ZM16 15L16 16L17 16L17 15ZM21 15L21 16L22 16L22 15ZM8 16L8 17L9 17L9 16ZM10 16L10 17L11 17L11 16ZM28 17L28 18L29 18L29 17ZM11 18L11 19L12 19L12 18ZM17 20L17 21L16 21L16 22L17 22L17 21L18 21L18 20ZM21 21L21 24L24 24L24 21ZM22 22L22 23L23 23L23 22ZM10 24L10 25L9 25L9 26L10 26L10 28L11 28L11 27L12 27L12 28L15 28L15 27L14 27L14 26L16 26L16 25L13 25L13 26L10 26L10 25L11 25L11 24ZM25 24L25 25L24 25L24 26L25 26L25 27L26 27L26 28L27 28L27 26L28 26L28 25L27 25L27 26L25 26L25 25L26 25L26 24ZM21 25L21 26L23 26L23 25ZM21 27L21 28L22 28L22 27ZM0 0L0 7L7 7L7 0ZM1 1L1 6L6 6L6 1ZM2 2L2 5L5 5L5 2ZM22 0L22 7L29 7L29 0ZM23 1L23 6L28 6L28 1ZM24 2L24 5L27 5L27 2ZM0 22L0 29L7 29L7 22ZM1 23L1 28L6 28L6 23ZM2 24L2 27L5 27L5 24Z" fill="#000000"/></g></g></svg>
