<?xml version="1.0" encoding="UTF-8"?>
<svg xmlns="http://www.w3.org/2000/svg" version="1.1" width="300" height="300" viewBox="0 0 300 300"><rect x="0" y="0" width="300" height="300" fill="#ffffff"/><g transform="scale(10.345)"><g transform="translate(0,0)"><path fill-rule="evenodd" d="M9 0L9 1L11 1L11 2L9 2L9 3L8 3L8 5L9 5L9 6L8 6L8 7L9 7L9 9L10 9L10 10L8 10L8 8L5 8L5 9L7 9L7 10L4 10L4 9L2 9L2 8L0 8L0 9L1 9L1 10L0 10L0 11L1 11L1 10L4 10L4 11L3 11L3 12L2 12L2 14L0 14L0 16L1 16L1 17L0 17L0 21L1 21L1 19L3 19L3 20L4 20L4 21L7 21L7 20L4 20L4 19L5 19L5 18L6 18L6 19L7 19L7 18L9 18L9 15L8 15L8 16L6 16L6 15L7 15L7 14L5 14L5 13L4 13L4 14L5 14L5 15L3 15L3 16L4 16L4 18L1 18L1 17L2 17L2 16L1 16L1 15L2 15L2 14L3 14L3 12L4 12L4 11L7 11L7 12L6 12L6 13L7 13L7 12L8 12L8 11L10 11L10 12L9 12L9 13L10 13L10 14L12 14L12 12L13 12L13 11L12 11L12 12L11 12L11 11L10 11L10 10L12 10L12 9L11 9L11 8L13 8L13 9L15 9L15 12L16 12L16 13L15 13L15 14L14 14L14 15L15 15L15 16L12 16L12 15L10 15L10 19L8 19L8 20L10 20L10 19L11 19L11 20L13 20L13 21L11 21L11 22L10 22L10 21L8 21L8 24L9 24L9 27L8 27L8 29L9 29L9 27L10 27L10 28L11 28L11 29L16 29L16 28L17 28L17 29L18 29L18 28L19 28L19 29L20 29L20 27L18 27L18 28L17 28L17 26L21 26L21 29L22 29L22 27L23 27L23 28L24 28L24 29L25 29L25 28L26 28L26 29L27 29L27 27L28 27L28 28L29 28L29 27L28 27L28 26L29 26L29 24L28 24L28 23L27 23L27 22L26 22L26 21L29 21L29 20L26 20L26 21L25 21L25 19L24 19L24 18L28 18L28 19L29 19L29 17L27 17L27 14L29 14L29 12L28 12L28 13L26 13L26 17L24 17L24 16L25 16L25 13L23 13L23 12L25 12L25 9L26 9L26 10L28 10L28 9L26 9L26 8L24 8L24 9L23 9L23 10L24 10L24 11L23 11L23 12L22 12L22 10L20 10L20 9L21 9L21 8L20 8L20 7L21 7L21 6L20 6L20 7L19 7L19 6L18 6L18 7L19 7L19 8L20 8L20 9L19 9L19 10L16 10L16 9L18 9L18 8L16 8L16 7L17 7L17 6L16 6L16 7L15 7L15 5L14 5L14 4L16 4L16 5L17 5L17 4L18 4L18 5L20 5L20 4L21 4L21 2L18 2L18 3L17 3L17 1L18 1L18 0L17 0L17 1L16 1L16 2L14 2L14 3L12 3L12 2L13 2L13 1L15 1L15 0L13 0L13 1L12 1L12 0ZM9 3L9 5L10 5L10 3ZM18 3L18 4L19 4L19 3ZM11 4L11 7L10 7L10 6L9 6L9 7L10 7L10 8L11 8L11 7L12 7L12 4ZM13 6L13 8L14 8L14 6ZM7 10L7 11L8 11L8 10ZM19 10L19 11L17 11L17 14L16 14L16 17L17 17L17 16L18 16L18 15L21 15L21 16L19 16L19 17L21 17L21 18L20 18L20 19L19 19L19 18L16 18L16 19L15 19L15 17L13 17L13 18L12 18L12 19L13 19L13 20L16 20L16 23L15 23L15 22L11 22L11 23L12 23L12 24L11 24L11 25L12 25L12 24L13 24L13 26L10 26L10 27L12 27L12 28L14 28L14 26L15 26L15 24L16 24L16 25L19 25L19 24L18 24L18 22L20 22L20 20L21 20L21 19L22 19L22 20L24 20L24 19L22 19L22 17L23 17L23 16L22 16L22 15L23 15L23 14L22 14L22 12L21 12L21 14L19 14L19 13L20 13L20 12L19 12L19 11L20 11L20 10ZM0 12L0 13L1 13L1 12ZM28 15L28 16L29 16L29 15ZM5 16L5 17L6 17L6 18L7 18L7 17L6 17L6 16ZM13 18L13 19L14 19L14 18ZM17 20L17 21L18 21L18 20ZM21 21L21 24L24 24L24 21ZM9 22L9 23L10 23L10 22ZM22 22L22 23L23 23L23 22ZM14 23L14 24L15 24L15 23ZM16 23L16 24L17 24L17 23ZM26 23L26 25L27 25L27 23ZM22 25L22 26L23 26L23 25ZM24 25L24 26L25 26L25 27L27 27L27 26L25 26L25 25ZM15 27L15 28L16 28L16 27ZM0 0L0 7L7 7L7 0ZM1 1L1 6L6 6L6 1ZM2 2L2 5L5 5L5 2ZM22 0L22 7L29 7L29 0ZM23 1L23 6L28 6L28 1ZM24 2L24 5L27 5L27 2ZM0 22L0 29L7 29L7 22ZM1 23L1 28L6 28L6 23ZM2 24L2 27L5 27L5 24Z" fill="#000000"/></g></g></svg>
