<?xml version="1.0" encoding="UTF-8"?>
<svg xmlns="http://www.w3.org/2000/svg" version="1.1" width="300" height="300" viewBox="0 0 300 300"><rect x="0" y="0" width="300" height="300" fill="#ffffff"/><g transform="scale(10.345)"><g transform="translate(0,0)"><path fill-rule="evenodd" d="M8 0L8 1L10 1L10 0ZM16 0L16 2L19 2L19 1L20 1L20 3L19 3L19 5L18 5L18 3L17 3L17 4L14 4L14 3L15 3L15 1L14 1L14 2L11 2L11 4L10 4L10 3L9 3L9 2L8 2L8 5L9 5L9 6L8 6L8 7L9 7L9 8L8 8L8 9L7 9L7 8L6 8L6 9L4 9L4 8L0 8L0 11L1 11L1 9L2 9L2 10L3 10L3 11L2 11L2 12L1 12L1 13L2 13L2 14L1 14L1 15L0 15L0 17L1 17L1 16L2 16L2 14L4 14L4 16L3 16L3 17L5 17L5 15L8 15L8 14L6 14L6 13L8 13L8 12L6 12L6 11L9 11L9 10L10 10L10 9L9 9L9 8L10 8L10 7L11 7L11 6L10 6L10 5L12 5L12 4L13 4L13 5L14 5L14 7L15 7L15 8L14 8L14 11L13 11L13 10L12 10L12 9L13 9L13 8L12 8L12 9L11 9L11 11L13 11L13 13L12 13L12 15L10 15L10 16L12 16L12 15L14 15L14 16L13 16L13 18L14 18L14 21L13 21L13 19L12 19L12 21L11 21L11 20L10 20L10 19L7 19L7 18L6 18L6 19L7 19L7 20L6 20L6 21L8 21L8 22L9 22L9 25L8 25L8 29L11 29L11 28L12 28L12 27L15 27L15 28L16 28L16 27L15 27L15 26L17 26L17 25L18 25L18 24L15 24L15 22L14 22L14 21L15 21L15 19L17 19L17 20L16 20L16 22L17 22L17 23L18 23L18 22L17 22L17 21L20 21L20 22L19 22L19 23L20 23L20 25L19 25L19 26L18 26L18 29L21 29L21 27L20 27L20 25L21 25L21 26L22 26L22 25L24 25L24 26L23 26L23 27L22 27L22 28L23 28L23 29L24 29L24 28L26 28L26 25L27 25L27 26L28 26L28 27L27 27L27 29L28 29L28 27L29 27L29 25L28 25L28 24L29 24L29 23L28 23L28 22L29 22L29 21L27 21L27 18L28 18L28 15L29 15L29 13L27 13L27 12L26 12L26 11L28 11L28 12L29 12L29 11L28 11L28 10L29 10L29 8L28 8L28 10L26 10L26 11L25 11L25 13L27 13L27 14L25 14L25 15L24 15L24 14L23 14L23 13L24 13L24 10L25 10L25 9L27 9L27 8L24 8L24 9L22 9L22 8L21 8L21 6L20 6L20 5L21 5L21 4L20 4L20 3L21 3L21 0L19 0L19 1L17 1L17 0ZM15 5L15 7L16 7L16 8L15 8L15 11L14 11L14 12L15 12L15 13L17 13L17 12L18 12L18 13L19 13L19 12L20 12L20 16L18 16L18 14L17 14L17 16L16 16L16 14L15 14L15 16L14 16L14 18L15 18L15 17L16 17L16 18L17 18L17 17L18 17L18 19L19 19L19 20L20 20L20 16L21 16L21 14L22 14L22 13L23 13L23 12L20 12L20 11L23 11L23 10L19 10L19 9L17 9L17 7L18 7L18 5L17 5L17 7L16 7L16 5ZM9 6L9 7L10 7L10 6ZM12 6L12 7L13 7L13 6ZM19 6L19 7L20 7L20 6ZM6 9L6 10L5 10L5 11L6 11L6 10L7 10L7 9ZM16 9L16 11L15 11L15 12L16 12L16 11L17 11L17 9ZM3 11L3 12L2 12L2 13L3 13L3 12L4 12L4 14L5 14L5 12L4 12L4 11ZM18 11L18 12L19 12L19 11ZM9 12L9 13L10 13L10 14L11 14L11 13L10 13L10 12ZM13 13L13 14L14 14L14 13ZM22 15L22 17L21 17L21 19L22 19L22 20L23 20L23 19L24 19L24 20L26 20L26 19L25 19L25 18L26 18L26 17L27 17L27 15L25 15L25 17L24 17L24 16L23 16L23 15ZM6 16L6 17L7 17L7 16ZM8 16L8 18L12 18L12 17L9 17L9 16ZM23 17L23 18L24 18L24 17ZM0 18L0 19L1 19L1 18ZM2 18L2 19L3 19L3 20L1 20L1 21L3 21L3 20L4 20L4 21L5 21L5 20L4 20L4 18ZM8 20L8 21L9 21L9 20ZM10 21L10 22L11 22L11 21ZM21 21L21 24L24 24L24 21ZM13 22L13 23L14 23L14 22ZM22 22L22 23L23 23L23 22ZM26 22L26 23L25 23L25 25L26 25L26 24L27 24L27 22ZM10 23L10 25L11 25L11 27L12 27L12 26L14 26L14 25L11 25L11 23ZM9 26L9 28L10 28L10 26ZM24 26L24 27L25 27L25 26ZM13 28L13 29L14 29L14 28ZM0 0L0 7L7 7L7 0ZM1 1L1 6L6 6L6 1ZM2 2L2 5L5 5L5 2ZM22 0L22 7L29 7L29 0ZM23 1L23 6L28 6L28 1ZM24 2L24 5L27 5L27 2ZM0 22L0 29L7 29L7 22ZM1 23L1 28L6 28L6 23ZM2 24L2 27L5 27L5 24Z" fill="#000000"/></g></g></svg>
